<?xml version="1.0" encoding="UTF-8"?>
<svg width="30px" height="30px" viewBox="0 0 30 30" version="1.1" xmlns="http://www.w3.org/2000/svg" xmlns:xlink="http://www.w3.org/1999/xlink">
    <title>icon_Polygon_network备份</title>
    <g id="lending" stroke="none" stroke-width="1" fill="none" fill-rule="evenodd">
        <g id="控制面板3" transform="translate(-124.000000, -598.000000)">
            <g id="编组-30" transform="translate(100.000000, 262.000000)">
                <g id="编组-32" transform="translate(0.000000, 125.000000)">
                    <g id="icon_Polygon_network" transform="translate(24.000000, 211.000000)">
                        <rect id="矩形" stroke="#D4D8E0" stroke-width="0.9375" fill="#2D374B" x="0.809659091" y="0.809659091" width="28.3806818" height="28.3806818" rx="14.1903409"></rect>
                        <g id="编组-5" transform="translate(0.340909, 0.340909)">
                            <path d="M29.3181818,14.6590909 C29.3181818,22.755078 22.755078,29.3181818 14.6590909,29.3181818 C6.56310384,29.3181818 0,22.755078 0,14.6590909 C0,6.56310384 6.56310384,0 14.6590909,0 C22.755078,0 29.3181818,6.56310384 29.3181818,14.6590909 Z" id="形状" fill="#8247E5"></path>
                            <path d="M20.005416,11.1580395 C19.6179582,10.9297095 19.1143351,10.9297095 18.6882357,11.1580395 L15.666337,12.9085746 L13.6130429,14.0502484 L10.5912244,15.8007434 C10.2038066,16.0290653 9.70016754,16.0290653 9.274012,15.8007434 L6.87203788,14.4307315 C6.48462011,14.2024096 6.21343168,13.7838461 6.21343168,13.3271781 L6.21343168,10.6252669 C6.21343168,10.168607 6.44588234,9.75000339 6.87203788,9.52167343 L9.23526622,8.18974998 C9.62268398,7.96142002 10.1263231,7.96142002 10.5524786,8.18974998 L12.915731,9.52167343 C13.3031087,9.75000339 13.5743212,10.168607 13.5743212,10.6252669 L13.5743212,12.375802 L15.6276153,11.1960958 L15.6276153,9.44556879 C15.6276153,8.98890084 15.3952047,8.57029725 14.9690251,8.34196729 L10.5912244,5.8303385 C10.2038066,5.60200838 9.70016754,5.60200838 9.274012,5.8303385 L4.81873573,8.34196729 C4.3925786,8.57029725 4.16012954,8.98890084 4.16012954,9.44556879 L4.16012954,14.5068923 C4.16012954,14.9635362 4.3925786,15.3821799 4.81873573,15.6105018 L9.274012,18.1221234 C9.66142175,18.3504453 10.1650689,18.3504453 10.5912244,18.1221234 L13.6130429,16.4096286 L15.666337,15.2299385 L18.6882357,13.5174518 C19.0756134,13.2891218 19.5792364,13.2891218 20.005416,13.5174518 L22.3686444,14.8493752 C22.756022,15.0776972 23.0272345,15.4963408 23.0272345,15.9529847 L23.0272345,18.6548479 C23.0272345,19.1115719 22.7948239,19.5301354 22.3686444,19.7584574 L20.005416,21.1284692 C19.6179582,21.3567912 19.1143351,21.3567912 18.6882357,21.1284692 L16.3250074,19.7965378 C15.9375495,19.5682158 15.666337,19.1495721 15.666337,18.6929283 L15.666337,16.9424333 L13.6130429,18.1221234 L13.6130429,19.8726184 C13.6130429,20.3292623 13.8455336,20.7479059 14.2716331,20.9762279 L18.7269574,23.4878494 C19.1143351,23.7161714 19.6179582,23.7161714 20.0441377,23.4878494 L24.4994621,20.9762279 C24.8868398,20.7479059 25.1580523,20.3292623 25.1580523,19.8726184 L25.1580523,14.8112948 C25.1580523,14.354651 24.9255615,13.9360874 24.4994621,13.7077655 L20.005416,11.1580395 Z" id="路径" fill="#FFFFFF" fill-rule="nonzero"></path>
                        </g>
                    </g>
                </g>
            </g>
        </g>
    </g>
</svg>